<?xml version="1.0" encoding="UTF-8"?>
<svg id="Layer_2" data-name="Layer 2" xmlns="http://www.w3.org/2000/svg" xmlns:xlink="http://www.w3.org/1999/xlink" viewBox="0 0 122.98 106.13">
  <defs>
    <style>
      .cls-1 {
        fill: url(#linear-gradient-2);
      }

      .cls-2 {
        fill: url(#linear-gradient-4);
      }

      .cls-3 {
        fill: url(#linear-gradient-3);
      }

      .cls-4 {
        fill: url(#linear-gradient-5);
      }

      .cls-5 {
        fill: url(#linear-gradient);
      }
    </style>
    <linearGradient id="linear-gradient" x1="91.67" y1="0" x2="91.67" y2="14.26" gradientUnits="userSpaceOnUse">
      <stop offset=".03" stop-color="#d93352"/>
      <stop offset=".47" stop-color="#d7306b"/>
      <stop offset="1" stop-color="#9e1e65"/>
    </linearGradient>
    <linearGradient id="linear-gradient-2" x1="105.66" y1="1.73" x2="105.66" y2="11.99" xlink:href="#linear-gradient"/>
    <linearGradient id="linear-gradient-3" x1="119.47" y1="2.76" x2="119.47" y2="10.22" xlink:href="#linear-gradient"/>
    <linearGradient id="linear-gradient-4" x1="69.67" y1="12.81" x2="69.67" y2="106.13" xlink:href="#linear-gradient"/>
    <linearGradient id="linear-gradient-5" x1="18.27" y1="8.8" x2="18.27" y2="50.04" xlink:href="#linear-gradient"/>
  </defs>
  <g id="OBJECTS">
    <g>
      <path class="cls-5" d="M97.04,1.49c-.31-.77-.98-1.28-1.88-1.44-3.43-.62-6.51,4.67-8.49,9.21-1.01,2.31-.42,3.59.25,4.26.49.49,1.15.74,1.84.74.56,0,1.13-.16,1.66-.49.85-.53,1.38-1.34,1.81-1.99.12-.18.34-.49.63-.87,3.18-4.35,4.99-7.44,4.2-9.41Z"/>
      <path class="cls-1" d="M108.5,1.88c-1.48-.6-3.38.79-4.01,1.62-.91,1.2-1.78,2.39-2.41,3.77-.25.55-.53,1.29-.49,2.14.05,1.08.65,2.02,1.53,2.4.23.1.54.19.91.19.68,0,1.58-.3,2.58-1.39,1.85-2.02,2.9-4.1,3.12-6.19.19-1.78-.79-2.37-1.22-2.54Z"/>
      <path class="cls-3" d="M121.35,2.97c-1.74-.7-4.04.4-4.94,2.36-.52,1.14-.6,2.23-.21,3.13.47,1.1,1.62,1.77,2.82,1.77.39,0,.79-.07,1.17-.23,1.12-.45,2.01-1.48,2.5-2.88.81-2.33-.21-3.69-1.34-4.14Z"/>
      <path class="cls-2" d="M115.8,13.63h0c-1.76-1.55-4.37-.89-6.79,1.72-4.01,4.32-7.57,9.12-10.61,14.3-.45.78-.92,1.58-1.53,1.93-.21.12-.51.16-.74.09-.15-.05-.18-.12-.2-.14-.13-.28.06-.85.57-1.68l6.52-10.74c.4-.66,1.01-1.66.94-2.85-.06-.97-.58-1.86-1.44-2.44-.99-.66-2.29-.84-3.39-.46-1.75.6-2.88,2.17-3.7,3.31l-11.8,16.36c-.44.61-.93,1.29-1.5,1.59-.32.17-.75.16-.89-.02-.24-.33,0-1.14.65-2.17l4.39-6.96c2.23-3.53,1.29-5.46.54-6.3-1.05-1.16-2.87-1.39-4.42-.56-1.22.65-2.05,1.79-2.67,2.63-2.59,3.52-7.72,10.59-7.72,10.59l-16.85,22.03-9.98-14.12c-.21-.3-.55-.49-.92-.52-.37-.03-.73.11-.99.38l-20.6,21.47c-.42.44-.46,1.11-.1,1.6l32.1,42.96c.23.31.6.5.99.5h.01c.4,0,.76-.2.99-.52,2.23-3.12,54.62-76.54,59.14-85.1,1.57-2.98,1.56-5.49-.03-6.89Z"/>
      <path class="cls-4" d="M36.31,27.17l-12.61-17.85c-.21-.3-.55-.49-.91-.52-.37-.03-.73.11-.98.37L.35,31.17c-.43.44-.47,1.12-.11,1.6l12.53,16.77c.21.29.54.46.89.49.03,0,.07,0,.1,0,.32,0,.63-.12.86-.35l21.53-20.91c.44-.42.5-1.1.15-1.6Z"/>
    </g>
  </g>
</svg>